<svg width="44" height="44" viewBox="0 0 44 44" fill="none" xmlns="http://www.w3.org/2000/svg">
<circle cx="22" cy="22" r="22" fill="#F9F9F9"/>
<path d="M27 14H17C14 14 12 15.5 12 19V22.56C12 22.93 12.38 23.16 12.71 23.01C13.69 22.56 14.82 22.39 16.01 22.6C18.64 23.07 20.57 25.51 20.5 28.18C20.49 28.6 20.43 29.01 20.32 29.41C20.24 29.72 20.49 30.01 20.81 30.01H27C30 30.01 32 28.51 32 25.01V19C32 15.5 30 14 27 14ZM22 24.5C20.62 24.5 19.5 23.38 19.5 22C19.5 20.62 20.62 19.5 22 19.5C23.38 19.5 24.5 20.62 24.5 22C24.5 23.38 23.38 24.5 22 24.5ZM29.25 24C29.25 24.41 28.91 24.75 28.5 24.75C28.09 24.75 27.75 24.41 27.75 24V20C27.75 19.59 28.09 19.25 28.5 19.25C28.91 19.25 29.25 19.59 29.25 20V24Z" fill="url(#paint0_linear_0_697)"/>
<path d="M15 24C12.79 24 11 25.79 11 28C11 28.75 11.21 29.46 11.58 30.06C12.27 31.22 13.54 32 15 32C16.46 32 17.73 31.22 18.42 30.06C18.79 29.46 19 28.75 19 28C19 25.79 17.21 24 15 24ZM16.97 27.67L14.84 29.64C14.7 29.77 14.51 29.84 14.33 29.84C14.14 29.84 13.95 29.77 13.8 29.62L12.81 28.63C12.52 28.34 12.52 27.86 12.81 27.57C13.1 27.28 13.58 27.28 13.87 27.57L14.35 28.05L15.95 26.57C16.25 26.29 16.73 26.31 17.01 26.61C17.29 26.91 17.27 27.39 16.97 27.67Z" fill="url(#paint1_linear_0_697)"/>
<defs>
<linearGradient id="paint0_linear_0_697" x1="12.4" y1="29.6898" x2="41.1022" y2="-2.97842" gradientUnits="userSpaceOnUse">
<stop offset="0.138287" stop-color="#FFB23F"/>
<stop offset="0.467052" stop-color="#FAD8A5"/>
</linearGradient>
<linearGradient id="paint1_linear_0_697" x1="20.2145" y1="82.0741" x2="-0.339662" y2="80.4456" gradientUnits="userSpaceOnUse">
<stop offset="0.25249" stop-color="#40B4A6"/>
<stop offset="0.637527" stop-color="#A6D8D2"/>
</linearGradient>
</defs>
</svg>
