<svg width="51" height="51" viewBox="0 0 51 51" fill="none" xmlns="http://www.w3.org/2000/svg">
<path fill-rule="evenodd" clip-rule="evenodd" d="M39.1869 17.176C23.0045 26.986 20.2786 28.1521 13.9091 22.3932C15.4885 27.8964 14.7669 31.8987 11.8231 35.9923C19.1091 33.7716 20.4383 35.8004 24.1367 38.3395C21.8602 31.1523 25.0528 28.7876 39.1869 17.176Z" stroke="#FFB23F" stroke-width="3" stroke-miterlimit="1.5" stroke-linecap="round" stroke-linejoin="round"/>
<path d="M33.1123 31.7903C33.3434 32.5452 33.4351 33.3468 33.5837 34.1209" stroke="#FFB23F" stroke-width="3" stroke-miterlimit="1.5" stroke-linecap="round" stroke-linejoin="round"/>
<path d="M30.0691 36.6563C30.6687 36.5644 31.2742 36.3939 31.867 36.2556" stroke="#FFB23F" stroke-width="3" stroke-miterlimit="1.5" stroke-linecap="round" stroke-linejoin="round"/>
<path d="M34.3106 37.6726C34.3086 38.4141 34.4415 39.3726 34.6746 40.0877" stroke="#FFB23F" stroke-width="3" stroke-miterlimit="1.5" stroke-linecap="round" stroke-linejoin="round"/>
<path d="M36.2236 35.5361C37.0232 35.6009 37.8655 35.2784 38.6645 35.1787" stroke="#FFB23F" stroke-width="3" stroke-miterlimit="1.5" stroke-linecap="round" stroke-linejoin="round"/>
<path d="M18.5901 10.7007C18.6766 11.5475 18.8201 12.3838 18.9882 13.2169" stroke="#FFB23F" stroke-width="3" stroke-miterlimit="1.5" stroke-linecap="round" stroke-linejoin="round"/>
<path d="M15.2627 15.4508C15.8964 15.3941 16.5033 15.3154 17.1274 15.2017" stroke="#FFB23F" stroke-width="3" stroke-miterlimit="1.5" stroke-linecap="round" stroke-linejoin="round"/>
<path d="M19.6583 16.729C19.6715 17.5212 19.8293 18.3631 19.99 19.1421" stroke="#FFB23F" stroke-width="3" stroke-miterlimit="1.5" stroke-linecap="round" stroke-linejoin="round"/>
<path d="M21.6602 14.5608C22.3816 14.3809 23.049 14.1379 23.7952 14.0525" stroke="#FFB23F" stroke-width="3" stroke-miterlimit="1.5" stroke-linecap="round" stroke-linejoin="round"/>
</svg>
